# xmcd
#
# Track frame offsets:
#	150
#	17972
#	45042
#
# Disc length: 941 seconds
#
# Revision: 0
# Processed by: cddbd v1.5.2PL0 Copyright (c) Steve Scherf et al.
# Submitted via: dBpowerAMP V4.0
#
DISCID=1603ab03
DTITLE=Boxcar - Freemason (You Broke The Promise)
DYEAR=1989
DGENRE=Blues
TTITLE0=Freemason (You Broke The Promise) (single mix)
TTITLE1=Freemason (You Broke The Promise) (shakedown mix)
TTITLE2=Comet
EXTD=cd single
EXTT0=
EXTT1=
EXTT2=
PLAYORDER=
